/* XPM */
static char *dummy[]={
"50 50 518 2",
"eD c #2f374e",
"cD c #313952",
"eM c #343a4b",
"cB c #343b52",
"eY c #353b4c",
"fd c #363b4a",
"e4 c #363b4b",
"ez c #363b4c",
"cj c #363c4f",
"dp c #363d4f",
"f4 c #373b49",
"d4 c #373c4c",
"dB c #373d4d",
"c3 c #373d4f",
"fn c #373d50",
".u c #383838",
"f5 c #383c48",
"fr c #383c49",
"e5 c #383d4a",
"er c #383d4b",
"dh c #383e4e",
"fi c #393d4a",
"ek c #393d4b",
"d3 c #393d4c",
"dQ c #393e4c",
".n c #3a3a3a",
"e. c #3a3e4b",
"dv c #3a3e4d",
"c0 c #3a3f4e",
"fS c #3a3f4f",
"fs c #3b3e48",
"fc c #3b3e49",
"ey c #3b3f49",
"eo c #3b3f4a",
"cy c #3b3f50",
"dc c #3b404e",
"fm c #3b404f",
"eu c #3c3f49",
"d8 c #3c3f4a",
"dM c #3c3f4b",
"eb c #3c404a",
"cQ c #3c404d",
"gc c #3d3d3d",
"f9 c #3d3f46",
"fQ c #3d3f47",
"g. c #3d4047",
"fx c #3d4048",
"eR c #3d4049",
"dH c #3d404a",
"cH c #3d414c",
"cV c #3d414e",
"fR c #3e4047",
"cR c #3e414d",
"fC c #3e414e",
"bx c #3e4251",
"cJ c #3f3f3f",
"g# c #3f4146",
"es c #3f4147",
"eg c #3f4148",
"f8 c #3f4149",
"ed c #3f4248",
"dY c #3f4249",
"co c #3f424c",
"cv c #3f434e",
".E c #404040",
"ef c #404247",
"dW c #404248",
"dl c #404249",
"de c #40424c",
"d. c #40434a",
"b3 c #40444e",
".o c #414141",
"ga c #414245",
"fh c #414246",
"eQ c #414347",
"dG c #414348",
"c5 c #414349",
"f. c #41444b",
"gb c #41444c",
"cx c #41444d",
"bw c #41444e",
".p c #424242",
"eH c #424346",
"do c #424348",
"cK c #424349",
"di c #42444a",
"ch c #42444b",
"a4 c #42444c",
"a6 c #42454c",
".q c #434343",
"fz c #434345",
"e1 c #434346",
"c9 c #434449",
"du c #43454a",
"a3 c #43454b",
"a5 c #43454c",
"bi c #43454d",
"bh c #43464d",
".r c #444444",
"fb c #444445",
"dS c #444547",
"dN c #444548",
"fV c #44464b",
"a7 c #44464d",
"fy c #454544",
".t c #454545",
"d9 c #454546",
"dT c #454547",
"ec c #454646",
"dz c #454649",
"bg c #45474c",
"eL c #464545",
".s c #464646",
"ci c #464748",
"bP c #464749",
"bO c #46474a",
"bj c #46474b",
"a8 c #46474d",
"cb c #46484b",
"b5 c #46484d",
"bb c #464850",
"dA c #474646",
"dR c #474746",
"#l c #474747",
"cP c #474748",
"bl c #474749",
"f6 c #47474a",
"dd c #474849",
"fD c #47484a",
"bc c #474950",
"bd c #474a51",
"eZ c #484747",
"c4 c #484847",
".x c #484848",
"a2 c #484849",
"fW c #48484a",
"f3 c #494843",
"cI c #494948",
".y c #494949",
"bJ c #49494a",
"bI c #494a4c",
"a9 c #494a4d",
"by c #494a4e",
"ba c #494a4f",
"eV c #4a4844",
"eG c #4a4944",
"cp c #4a4948",
"cC c #4a4949",
"bk c #4a4a49",
".z c #4a4a4a",
"bA c #4a4b4e",
"cw c #4b4b49",
"bf c #4b4b4a",
".A c #4b4b4b",
"fw c #4c4942",
"eP c #4c4a43",
"b4 c #4c4b4a",
".D c #4c4c4c",
"b. c #4c4c4d",
"be c #4c4c4e",
"b2 c #4d4b49",
"bz c #4d4d4c",
".B c #4d4d4d",
"cG c #4e4c46",
"bm c #4e4c47",
"b# c #4e4d4d",
".C c #4e4e4e",
"fa c #4f4c41",
"bQ c #4f4d45",
".G c #4f4f4f",
"fE c #504e46",
"bv c #504e48",
".H c #505050",
"eK c #514d40",
".I c #515151",
"e0 c #524d40",
"et c #524e40",
"ee c #524e41",
"el c #524e42",
"cO c #524e44",
"cU c #524f45",
".K c #525252",
"dF c #534e41",
"dn c #534f42",
".L c #535353",
"fq c #544f3f",
"c8 c #545042",
"dt c #545043",
"f7 c #545044",
"bH c #545148",
".M c #545454",
"dk c #555042",
"cZ c #555144",
".N c #555555",
"ca c #565246",
".O c #565656",
"f# c #57513f",
".4 c #575757",
"eI c #58523e",
".U c #585858",
"dX c #59523e",
"dE c #59533f",
"cL c #595341",
".T c #595959",
"dm c #5a5440",
"#c c #5a5a5a",
"c6 c #5b5440",
"cn c #5b5541",
"#b c #5b5b5b",
"eh c #5c543d",
"aJ c #5c5c5c",
"fZ c #5d543b",
"dZ c #5d553e",
"f2 c #5d563c",
"#C c #5d5d5d",
"fo c #5f573e",
"ck c #5f573f",
"bN c #5f5840",
"#A c #5f5f5f",
"bp c #60583f",
"bu c #605941",
".P c #606060",
"eS c #61573b",
"bq c #61583f",
"bL c #615840",
"#m c #616161",
"e9 c #62593d",
"cu c #625940",
"aY c #626262",
"eE c #63593a",
"bB c #635b43",
".3 c #636363",
"ft c #645a39",
".m c #646464",
"f0 c #655a39",
"bE c #655c43",
"bD c #655d43",
".Q c #656565",
"#n c #666666",
"bF c #675e42",
"#o c #676767",
"br c #685d3d",
".S c #686868",
"f1 c #695d37",
"bK c #695f3d",
".w c #696969",
"ev c #6a5e37",
"bo c #6a5f3b",
"fY c #6a5f3c",
"b6 c #6a5f3e",
"bM c #6a603c",
".J c #6a6a6a",
"en c #6b5f38",
"cg c #6b5f3b",
"bt c #6b603c",
"#k c #6b6b6b",
"bn c #6c603a",
"fX c #6c603b",
"#d c #6c6c6c",
"dI c #6d6039",
"bs c #6d603b",
".R c #6d6d6d",
"a. c #6e6e6e",
"dV c #6f6137",
"cW c #6f623a",
"aU c #6f6f6f",
"ex c #706136",
".V c #707070",
"cq c #716339",
"bG c #71653d",
"bC c #71653e",
"aP c #717171",
"#9 c #727272",
"fj c #736334",
"aK c #737373",
"aG c #747474",
"fB c #756637",
"aZ c #757575",
"aA c #767676",
"dL c #776734",
"aB c #777777",
"aC c #787878",
".j c #797979",
"fP c #7a6831",
"aF c #7a7a7a",
"bR c #7b6934",
".f c #7b7b7b",
"cc c #7c6a34",
"fF c #7c6a35",
".W c #7d7d7d",
".g c #7e7e7e",
"dP c #7f6c31",
".h c #7f7f7f",
".i c #808080",
"aM c #818181",
"dw c #826e30",
"an c #828282",
"e# c #836e2f",
"ao c #838383",
"am c #848484",
"ej c #856f2e",
"aD c #858585",
"az c #868686",
".2 c #878787",
"aS c #888888",
"d2 c #89722d",
"#a c #898989",
"aj c #8a8a8a",
".e c #8b8b8b",
"cE c #8c742e",
"aq c #8c8c8c",
"eq c #8e762b",
"aN c #8e8e8e",
"aE c #8f8f8f",
".v c #909090",
"ar c #919191",
"aQ c #929292",
"b1 c #937a2d",
".F c #939393",
"eN c #947927",
"fT c #947a2b",
"ak c #949494",
"dg c #957b2a",
"ay c #959595",
"c# c #967c2b",
"au c #969696",
"d5 c #977b27",
".5 c #979797",
"gd c #989898",
"dq c #997d28",
"aO c #999999",
"af c #9a9a9a",
"av c #9b9b9b",
"aR c #9c9c9c",
"c2 c #9d7f26",
"as c #9d9d9d",
"ae c #9e9e9e",
"ap c #9f9f9f",
"#Q c #a0a0a0",
"#D c #a1a1a1",
"e3 c #a28222",
"ad c #a3a3a3",
"ag c #a4a4a4",
"dC c #a58423",
"ax c #a5a5a5",
".k c #a7a7a7",
"eW c #a88720",
"#0 c #a8a8a8",
"#j c #a9a9a9",
"#7 c #aaaaaa",
"#8 c #ababab",
"ac c #acacac",
"eA c #ad8a1f",
".X c #adadad",
"eX c #ae8a1e",
"#6 c #aeaeae",
"#5 c #afafaf",
"e7 c #b08b1d",
"aT c #b0b0b0",
"#1 c #b1b1b1",
"fe c #b28e1c",
"db c #b38e1e",
"#z c #b3b3b3",
"#2 c #b5b5b5",
"al c #b6b6b6",
"#Y c #b7b7b7",
"fL c #b8911a",
"#E c #b8b8b8",
"b7 c #b9941d",
"#e c #b9b9b9",
"eC c #ba921a",
"cS c #ba931c",
"#X c #bababa",
"#p c #bbbbbb",
"aL c #bcbcbc",
"fK c #bd9418",
"dD c #bd951a",
"ab c #bdbdbd",
"Qt c #bebebe",
"fl c #bf9619",
"#4 c #bfbfbf",
".d c #c0c0c0",
"#N c #c1c1c1",
"bS c #c29818",
"fG c #c29919",
"at c #c2c2c2",
"e6 c #c39816",
"c1 c #c39917",
"aV c #c3c3c3",
"bX c #c49a18",
".c c #c4c4c4",
"fM c #c59b15",
"fv c #c59c15",
"fO c #c59d15",
"#B c #c5c5c5",
".l c #c6c6c6",
"cz c #c79c16",
"aH c #c7c7c7",
".# c #c8c8c8",
"bW c #c99c16",
"#M c #c9c9c9",
"#R c #cacaca",
"fu c #cba013",
".b c #cbcbcb",
"cA c #cc9e15",
"ep c #cc9f13",
".a c #cccccc",
"#Z c #cdcdcd",
"#W c #cecece",
"d7 c #cfa012",
"#O c #cfcfcf",
"cf c #d0a513",
"## c #d0d0d0",
"a0 c #d1d1d1",
"bY c #d2a312",
"#L c #d2d2d2",
"df c #d3a212",
"e8 c #d3a310",
"cd c #d3a612",
"b0 c #d3a712",
"#J c #d3d3d3",
"ea c #d4a410",
"#F c #d4d4d4",
"cr c #d5a711",
"a1 c #d5d5d5",
"#t c #d6d6d6",
"fg c #d7a60f",
".Y c #d7d7d7",
"fJ c #d8a70e",
".1 c #d8d8d8",
"fA c #d9a70f",
".8 c #d9d9d9",
"#G c #dadada",
".6 c #dbdbdb",
"#I c #dcdcdc",
"ct c #ddad0e",
"#H c #dddddd",
"fN c #deac0c",
".Z c #dedede",
"dU c #dfab0c",
".0 c #dfdfdf",
"e2 c #e0ac0b",
"ai c #e0e0e0",
"eF c #e1ac0b",
"aI c #e1e1e1",
"bV c #e2ad0b",
"aW c #e2e2e2",
"dy c #e3ad0b",
"aw c #e3e3e3",
"d# c #e4af0b",
"#V c #e4e4e4",
"dO c #e5ae0a",
"dj c #e5af0a",
"a# c #e5e5e5",
"bZ c #e6b20a",
"#u c #e6e6e6",
"fU c #e7b00a",
"#3 c #e7e7e7",
"cT c #e8b309",
"#g c #e8e8e8",
"#v c #e9e9e9",
"c. c #eab408",
"#P c #eaeaea",
"#h c #ebebeb",
"#w c #ececec",
"eO c #edb406",
"#U c #eeeeee",
"#s c #efefef",
"cF c #f0ba06",
"ah c #f0f0f0",
"cY c #f1b806",
"#T c #f1f1f1",
"eJ c #f3b804",
"em c #f3b905",
"#S c #f3f3f3",
"cN c #f4b804",
"ds c #f4b904",
".7 c #f4f4f4",
"#x c #f5f5f5",
"#r c #f6f6f6",
"fp c #f7bb03",
"#i c #f7f7f7",
"cm c #f8bb03",
"fI c #f8bc03",
"#. c #f8f8f8",
"eU c #f9bf02",
"fH c #f9c102",
"aa c #f9f9f9",
"d0 c #fabc02",
"bU c #fabd02",
"b9 c #fac002",
"bT c #fac202",
"aX c #fafafa",
"#f c #fbfbfb",
"cM c #fcbd01",
"c7 c #fcbe01",
"b8 c #fcc101",
"eT c #fcc301",
"#y c #fcfcfc",
"#K c #fdfdfd",
"ce c #fec700",
"#q c #fefefe",
"dJ c #ffc300",
"cl c #ffc400",
"ew c #ffc500",
"fk c #ffc600",
"dK c #ffc700",
"cX c #ffc800",
"ei c #ffca00",
"d1 c #ffcb00",
"dr c #ffcd00",
"dx c #ffce00",
"da c #ffd100",
"d6 c #ffd200",
"cs c #ffd300",
"eB c #ffd400",
"ff c #ffd500",
".9 c #ffffff",
"Qt.#.a.b.b.b.b.b.b.b.b.b.b.b.b.b.b.b.b.b.b.b.b.b.b.b.b.b.b.b.b.b.b.b.b.b.b.b.b.b.b.b.b.b.b.b.b.b.a.c",
".d.e.f.g.g.g.g.g.g.g.h.h.h.h.h.h.h.h.i.i.i.i.i.i.i.i.i.i.i.i.i.h.h.h.h.h.h.g.g.g.g.g.g.g.g.g.g.g.j.k",
".l.m.n.o.o.p.p.p.p.q.q.q.q.q.r.r.r.r.s.s.t.t.s.s.s.s.s.s.s.t.t.r.r.r.r.q.q.q.p.p.p.o.o.p.o.o.o.o.u.v",
".l.w.o.x.y.y.y.y.y.z.z.z.z.z.A.A.A.B.B.B.B.B.B.B.C.C.B.B.C.B.D.D.A.A.z.z.z.z.y.y.y.y.y.y.y.x.x.x.E.F",
".l.w.p.y.y.y.z.z.z.z.z.A.A.A.D.B.B.B.B.C.C.C.G.G.G.G.G.C.C.C.B.B.B.D.A.z.z.z.z.z.y.y.y.y.y.x.x.x.E.F",
".l.w.p.y.y.z.z.z.A.A.A.A.D.D.B.B.C.C.C.G.H.H.I.I.I.I.I.H.H.G.G.C.B.B.D.A.z.z.z.z.z.z.y.y.y.y.y.x.E.F",
".l.J.q.y.y.z.z.A.A.A.D.D.B.B.C.B.C.C.H.I.K.K.L.L.L.L.L.K.K.I.H.G.C.C.B.D.A.A.z.z.z.z.y.y.y.y.y.x.E.F",
".l.w.q.z.z.z.A.A.D.B.B.C.C.C.C.G.H.I.K.L.I.M.N.N.N.M.N.M.M.L.K.I.H.G.C.B.B.A.A.A.z.z.z.z.y.y.y.x.E.F",
".l.w.q.z.A.D.D.B.B.C.C.G.G.G.H.I.I.L.M.O.M.K.P.Q.R.R.S.P.T.M.M.M.K.H.C.C.B.B.A.A.A.z.z.z.z.y.y.x.o.F",
".l.J.r.A.D.B.C.G.G.H.H.H.I.I.K.K.L.N.U.T.V.W.X.Y.Z.0.1.#.X.2.3.N.M.L.I.G.C.B.D.D.D.A.A.z.z.y.y.y.o.F",
".l.J.t.D.C.G.I.I.K.L.L.M.M.N.N.O.4.T.3.5.6.7.8.9.9.9.9.9.9#.###a#b.N.L.I.G.C.C.C.B.D.D.A.z.z.y.y.o.F",
".l.J.s.C.H.K.M.O.O.U.4.U.T.T.T#c#b#d#e#f.9.9#g#h.9.9.9.9.9.9.9#i#j.P.N.L.4#c.I.G.C.B.B.D.A.z.z.z.o.F",
".l#k#l.H.L.N#c#m#n.J#d.R.R#d.J#o.R#p.9.9#q#r#s#t#u#v#g#w#x#y.9.9.9#z.P.N#A#d.N.I.H.G.C.B.B.D.z.z.o.F",
"#B.R.z#C.i#D#E.##F#G.Z#H#H#I.8#J#J#K.9#y#v.1#L#M#B#N#B#B#O.8#P#y.9.9#Q#b.U.U.O.M.L.L.K.G.C.B.A.z.p.F",
".c.R.R#R#S#T#U#V#H.1#L.b#R#W.c#I.9.9#y#V#O#NQt#EQt#X#E#Y#Y#N#Z.0#y.9#h.j.T.T.T.T.4.T#c.K.H.C.B.A.p.F",
".c.w#0.9#G.d#N#1#1.X#2.c#J.0#3#U.9#g.8.##4#2#5.X#6Qt#7#8#j#5#e.c#u.9.9#Z.X#Q.2#9.3#b.T.O.M.I.C.D.q.F",
"#B.Ja.a#aa#tab.Xac#7.l.9.9.9.a#h#y#N#j#7ad#Daeaeafacacae#Dagac#z#Bah.9.9#W#Jai.6.b#5aj.R#c.M.K.G.tak",
".l.R#l.w#2#g#w.6Qt#8ad#M#3aa#V#r#Ualaf.5.vajamanamaoap.vaqaqarasad#N#x#fatauaqav#z#Zaw.6#Xaj#m.H#lak",
".l#k#l.C.K.Rap.a#V#V#L#e#5#1#M#I.a#Eaxayaraz.h.jaA#9.haraBaC.faDaEap#I.9.Z#3##asaFaG.e#jaHaI#Jaq.Aak",
".l.J.t.B.G.H.IaJaKakal#W.6#t#RaL#0avae.5.5.FaqaDaM.iaCakaoaC.f.iaNav#G.9#M#h.9#vaOaPaP.j.faQ#e#Uasay",
".l.J.r.A.B.C.G.I.K.K.O#maGaq.k#M#T.YatacaRaR.F.vajaj.2azaS#aaDazaE.5#5#F.6#R#2au.Wa..JaKaF.ham#J#uae",
".l.J.q.z.A.B.B.C.G.I.K.L.L.M.N#m.d.9.9ah##.#aLaTax#D#QauaQauaNaSaSaNar.5aOaNaN#aaNar.F.kaLab.6#G.eay",
".l.J.q.y.z.A.D.D.B.C.G.H.I.K.M.LaU.Z.9.9#SaIai#WaH#N#N#4.d.l#L#G#u#xaIaH#M.b.a.b.b.#aV#4alaxaz#m.tay",
".l.w.q.y.z.z.A.A.D.B.B.C.C.H.H.K.KaM#P.9.9#yaaah#u.Z.1#IaW#waX.9.9aWao.m.m#n#n#n.maYaJ.4.K.C.B.D.rak",
".l.w.p.y.y.z.z.z.z.A.D.D.B.C.C.H.I.KaM#H.9.9.9.9aX#f#i#f.9.9.9.9#OaZ.N.M.L.K.K.K.I.I.H.G.G.B.B.A.p.F",
".l.J.p.y.y.y.z.z.z.z.A.A.A.D.B.C.G.H.H#k#5a##q.9.9.9.9.9.9.9#u#0#n.K.K.I.H.G.G.G.C.C.B.B.D.A.A.z.p.F",
".l.J.q.x.y.y.y.y.y.y.z.z.z.A.D.D.D.C.G.G.Ma.akaT.ca0a1##abav.V.M.H.H.G.C.C.B.B.D.D.D.A.A.z.z.y.y.o.F",
".l.J.q.y.x.y.y.y.y.y.y.z.z.z.z.A.A.D.B.C.G.C.G.NaJaYaY#A.4.H.G.G.G.C.B.D.A.D.A.A.z.z.z.z.y.y.y.y.o.F",
".l.J.q.y.x.x.x.y.xa2a3a4a5a5a5a6a7a8a9b..B.C.C.Cb#babbbcbdbdbdbe.B.D.Abfbgbhbia5bjbk.z.y.y.y.y.x.E.F",
".l.J.q.y.x.x.x.xblbmbnbobpbqbrbsbtbubvbwbxbybz.DbAbBbCbDbEbFbGbHbI.z.zbJbrbKbLbMbNbO.x.y.y.y.x.x.E.F",
".l.J.q.y.y#l.x.xbPbQbRbSbTbUbVbWbXbYbZb0b1b2b3b4b5b6b7b8b9c.c#cacb.ybJbOcccdcecfcgch.x.x.x.x.x.x.E.F",
".l.J.q.y.y.x#l#l.xcicjckclcmcncochcpcqcrcsctcucvcwcxcyczcscAcBbjcC.y.x.xcDcEcFcGcHcI.x.x.x.x#l#lcJaQ",
".l.J.q.y.y.y#l#l#l#lcKcLcMcNcOchcPbPcQcRcScscTcUa5bkcVcWcXcYcZa3.y.x.x.xc0c1c2c3c4#l.x#l#l#l#l#lcJ.F",
".l.J.q.y.y.y.x#l.s.sc5c6c7cNc8c9#lc4.xd.cId#dadbdc.ydddedfdadgdh.x.x.xdic6djdkc9.s#l#l#l#l#l.s#l.o.F",
".l.J.q.y.y.y.y#l#l.sdldmc7cNdndo#l#l#lc4dpdqdrdsdtdu.xdvdwdxdycidz#ldAdBdCdDdB#l#l#l.s#l#l#l.x.y.o.F",
".l.J.q.y.y.y.y.x.s.sdldEc7dsdFdG#l.s#l#ldHdIdJdKdLdM#ldN#ldOdxdPdQdRdSdTdUdVdHdA#l#l.s.s.x.y.y.y.o.F",
".l.J.q.y.y.y.y.y#l.sdWdXc7dsdFdG.s.s#l.sdYdZd0d1d2d3.s#ld4d5d6d7d8d9e.e#eaebec.s.s.s.x.y.y.y.y.y.o.F",
".l.J.q.y.y.y.y.y.x.teddXc7cNeeef.s.s.s.tegehd0eiejek.s.sdWelemdKeneoe.epeqer.s.s#l.x.y.y.y.y.y.y.o.F",
".l.J.q.y.y.y.y.y.y#lesdXc7cNetef.t.t.t.teuevdJewexey.t.s.sezeAeBeCeDeEeFeGeH#l.x.y.y.y.y.y.y.y.y.o.F",
".l.J.q.y.y.y.y.y.y.xdWeIc7eJeKef.t.t.teLeMeNdxeOePeQ.t.s.seReSeTeUeVeWeXeYeZ.y.y.y.y.y.y.y.y.y.y.o.F",
".l.J.q.y.y.y.y.y.y.yc5eIc7cNe0ef.t.t.tese1e2d6e3e4.t.t.t.t.te5e6dae7e8e9f..y.y.y.y.y.y.y.y.y.y.y.o.F",
".l.J.q.y.y.y.y.y.y.ya3f#cMcNfaes.tfbfcfdfefffg.tfh.t.t.t.t.tfifjfkd1flfm.y.y.y.y.y.y.y.y.y.y.y.y.o.F",
".l.J.q.y.y.y.y.y.ya2fnfoewfpfqfrfsfhftfudafvfwfxfy.t.t.t.t.tfzdYfAdxfBfC.y.y.y.y.y.y.y.y.y.y.y.y.o.F",
".l.J.q.y.y.y.y.yfDfEfFfGfHfIfJfKfLfMfNfOfPfQfRfy.t.t.t.t.t.t#lfSfTfUfVfD.y.y.y.y.y.y.y.y.y.y.y.y.o.F",
".l.J.q.y.y.y.y.yfWbmfXfYckfZf0f1f1f2f3f4f5fzfy.r.t.t.r.t.s.x.yf6f7cga3.y.y.y.y.y.y.y.y.y.y.y.y.y.o.F",
".l.J.q.y.y.y.y.y.ya2a5a4a4f8f9fQg.g#ga.r.r.r.r.r.r.r.s.x.y.y.ycCbOgbcC.y.y.y.y.y.y.y.y.y.y.y.y.y.o.F",
".l.J.q.y.y.y.y.y.y.y.y.y.y.y.r.r.r.r.r.r.r.r.r.r.t#l.y.y.y.y.y.y.y.y.y.y.y.y.y.y.y.y.y.y.y.y.y.y.o.F",
".l#ocJ.t.t.t.t.t.t.t.t.t.t.t.q.E.o.E.o.o.o.o.o.q.t.t.t.t.t.t.t.t.t.t.t.t.t.t.t.t.t.t.t.t.t.t.t.tgcar",
"#BaK.H.N.N.N.N.N.N.N.N.N.N.N.N.L.K.L.L.L.L.M.N.O.N.N.N.N.N.N.N.N.N.N.N.N.N.N.N.N.N.N.N.N.N.N.N.N.Cgd",
"#4#p#e#e#e#e#e#e#e#e#e#e#e#e#X#e#e#e#e#e#e#X#X#e#e#e#e#e#e#e#e#e#e#e#e#e#e#e#e#e#e#e#e#e#e#e#e#e#eab"};
