/* XPM */
static char *dummy[]={
"50 50 44 1",
"e c #333333",
"M c #333344",
"E c #333355",
"L c #334444",
"D c #334455",
"f c #444444",
"l c #444455",
"m c #554444",
"P c #555533",
"q c #555544",
"g c #555555",
"N c #665533",
"o c #665544",
"n c #666633",
"p c #666644",
"d c #666666",
"s c #776633",
"r c #776644",
"b c #777777",
"J c #886633",
"F c #887733",
"a c #888888",
"H c #997722",
"z c #997733",
"h c #999999",
"K c #aa8822",
"c c #aaaaaa",
"I c #bb8822",
"t c #bb9911",
"A c #bb9922",
". c #bbbbbb",
"w c #cc9911",
"x c #ccaa11",
"# c #cccccc",
"v c #ddaa11",
"i c #dddddd",
"y c #eeaa11",
"B c #eebb00",
"G c #eebb11",
"j c #eeeeee",
"u c #ffbb00",
"C c #ffcc00",
"O c #ffdd00",
"k c #ffffff",
".#################################################",
".abbbbbbbbbbbbbbbbaaaaaaaaaaaaabbbbbbbbbbbbbbbbbbc",
"#defffffffffffffffffffffffffffffffffffffffffffffea",
"#dfffffffffffffffgggggggggggggfffffffffffffffffffh",
"#dfffffffffffffggggggggggggggggggffffffffffffffffh",
"#dffffffffffffggggggggggggggggggggfffffffffffffffh",
"#dffffffffffgggggggggggggggggggggggffffffffffffffh",
"#dfffffffggggggggggggggggggggggggggggffffffffffffh",
"#dfffffgggggggggggggggddddddggggggggggfffffffffffh",
"#dfffgggggggggggggggbbciiii#cadgggggggfffffffffffh",
"#dffggggggggggggggdhijikkkkkkk#agggggggggffffffffh",
"#dfggggggggggggggd.kkkjjkkkkkkkkcdgggggggggffffffh",
"#dfggggdddddddddd.kkkjjijjjjjkkkk.dgddgggggggffffh",
"#dfgah.##iiiiii##kkkji###.###ijkkkhgggggggggggfffh",
"#dd#jjjiii#####ikkki#.........#ikkjbgggggggggggffh",
"#dcki..ccc.##ijjkji#..ccc.cccc.#jkk#chabdggggggffh",
"#ddiki.ccc#kkk#jk.ccchhhhcchhcc.#jkk##ii#cadggggfh",
"#dfd.jji.cc#jkijj.hhaaaaaahaaahhc.jk.hah.#ii.adgfh",
"#dfggdh#ii#.cc#i#.chhabbbbbhbbbaahikij#hbbac#i#afh",
"#dfgggggbh.#ii#.chhhhhaaaabhabbaahik#jkjhbbbbh.jhh",
"#dffgggggggdbac#ji.chhhaaaaaaaaaahc#i#.hbddbbba#jh",
"#dfffggggggggggd.kkj##.cchhhhhaaaahhhaaaahhc..iiah",
"#dffffffggggggggbikkjii##....##ijji#######...cadfh",
"#dfffffffggggggggajkkkkjjiiiijkkkiadddddddgggggffh",
"#dffffffffffggggggaikkkkkkkkkkkk#bgggggggggggggffh",
"#dffffffffffffgggggdcikkkkkkkkjcdgggggggggggfffffh",
"#dfffffffffffffffggggdhc##i#.hbggggggggffffffffffh",
"#dffffffffffffffffgggggggdddgggggggffffffffffffffh",
"#dffffffffffffffllllggggglllllllgffffllffffffffffh",
"#dfffffffmnnooonpoqlllqflorooprqffffopopoffffffffh",
"#dfffffffqstuuvwwxyxzmlflpAuuBzqffffsxCxnffffffffh",
"#dffffffffDoCuqfffsvCvolflDwCwEfffffEFBmfffffffffh",
"#dfffffffffquBqfffllACGqfflsCBqfffffDtHDfffffffffh",
"#dfffffffffquBqffffffvCIDfffxCHDffffqvqffffffffffh",
"#dfffffffffquBqfffffDHCBqffDJCvffffDKADffffffffffh",
"#dfffffffffquBqffffffnuCsffffvCsLfffvsfffffffffffh",
"#dfffffffffquBqffffffquCFLffLHCwffLJxffffffffffffh",
"#dfffffffffquBqffffffquCFLfffqBCnLLwFLfffffffffffh",
"#dfffffffffquBqffffffnuCsLfffMKCAENvfffffffffffffh",
"#dfffffffffquBqfffffMHCBffffffNuufKKMffffffffffffh",
"#dfffffffffquBqffffffvCKMfffffLtCKxofffffffffffffh",
"#dfffffffffquBmfffLMKOvfffffffLsCCtDfffffffffffffh",
"#dffffffffDoCuqLLfNwCwffffffffffvCslfffffffffffffh",
"#dfffffffqstuuvtAwvwsffffffffffDzyfffffffffffffffh",
"#dfffffffmnpoPNNNqfMLfffffffffffqnfffffffffffffffh",
"#dfffffffffffffffffffffffffffffffffffffffffffffffh",
"#dfffffffffffffffffffffffffffffffffffffffffffffffh",
"#dfffffffffffffffffffffffffffffffffffffffffffffffh",
"#bgggggggggggggggggggggggggggggggggggggggggggggggh",
".................................................."};
